PathFileType	4	(X/Y/Z)	C:\Users\86182\Documents\cortex\Trimmed_M3_L7.trc
DataRate	CameraRate	NumFrames	NumMarkers	Units	OrigDataRate	OrigDataStartFrame	OrigNumFrames
100.00	100.00	       98	2	mm	100.00	541	       901
Frame#	Time	gripper			box			
		X1	Y1	Z1	X2	Y2	Z2	

541	5.400	273.46582	149.81703	292.83411	274.79333	148.02783	157.12662	
542	5.410	273.45087	149.82330	292.83459	274.77966	148.00902	157.13086	
543	5.420	273.42419	149.82417	292.85095	274.83960	148.03050	157.11765	
544	5.430	273.42871	149.82481	292.84702	274.79022	148.02090	157.12782	
545	5.440	273.40356	149.82744	292.85977	274.79947	147.99934	157.12794	
546	5.450	273.43759	149.82420	292.84204	274.77747	148.01010	157.13118	
547	5.460	273.41080	149.82794	292.85422	274.79062	148.00366	157.12924	
548	5.470	273.43097	149.82181	292.85004	274.79742	148.01311	157.12714	
549	5.480	273.44891	149.81963	292.84140	274.78406	148.00688	157.13020	
550	5.490	273.43201	149.82600	292.84305	274.77847	148.01817	157.13026	
551	5.500	273.46762	149.81979	292.82877	274.77432	148.01613	157.12660	
552	5.510	273.45724	149.82033	292.83484	274.79333	148.02783	157.12662	
553	5.520	273.48383	149.81389	292.82687	274.79965	148.01202	157.12682	
554	5.530	273.49170	149.81287	292.82318	274.79764	148.02571	157.12601	
555	5.540	273.50494	149.81198	292.81573	274.79663	148.01927	157.12862	
556	5.550	273.48013	149.81656	292.82532	274.77756	148.00856	157.12909	
557	5.560	273.42532	149.82362	292.85104	274.77094	148.01328	157.13213	
558	5.570	273.42645	149.82210	292.85257	274.76575	147.99512	157.14034	
559	5.580	273.45184	149.81924	292.84003	274.74356	147.97179	157.15588	
560	5.590	273.45001	149.82002	292.84006	274.72513	147.95709	157.16710	
561	5.600	273.42645	149.82307	292.85114	274.77402	147.97049	157.14653	
562	5.610	273.43878	149.82271	292.84351	274.75262	147.96980	157.14920	
563	5.620	273.44873	149.82251	292.83722	274.72827	147.97925	157.15811	
564	5.630	273.46603	149.81508	292.83688	274.74756	147.98340	157.15041	
565	5.640	273.44205	149.82297	292.84097	274.77094	148.01328	157.13213	
566	5.650	273.47464	149.81645	292.82910	274.77094	148.01328	157.13213	
567	5.660	273.47437	149.81839	292.82642	274.76151	148.00600	157.13370	
568	5.670	273.46780	149.81882	292.83011	274.77094	148.01328	157.13213	
569	5.680	273.45554	149.82013	292.83624	274.77094	148.01328	157.13213	
570	5.690	273.49393	149.81273	292.82193	274.77847	148.01817	157.13026	
571	5.700	273.46570	149.81801	292.83270	274.77231	148.01442	157.12991	
572	5.710	273.45346	149.81836	292.84030	274.78622	148.00581	157.12988	
573	5.720	273.46384	149.81522	292.83813	274.77902	148.01361	157.13058	
574	5.730	273.50052	149.81229	292.81821	274.79947	147.99934	157.12794	
575	5.740	273.46674	149.81842	292.83139	274.81769	148.04121	157.12085	
576	5.750	273.40625	149.82732	292.85815	274.83820	148.02705	157.11819	
577	5.760	273.43542	149.82150	292.84753	274.80118	148.01555	157.12621	
578	5.770	273.46909	149.81731	292.83154	274.81000	148.02150	157.12216	
579	5.780	273.45795	149.81804	292.83777	274.80661	148.03401	157.12358	
580	5.790	273.45129	149.81752	292.84299	274.83447	148.02463	157.11911	
581	5.800	273.45795	149.81804	292.83777	274.81757	148.03378	157.12059	
582	5.810	273.47015	149.81770	292.83020	274.82059	148.03563	157.12079	
583	5.820	273.44330	149.82050	292.84384	274.80493	148.03333	157.12117	
584	5.830	273.46103	149.82024	292.83246	274.80444	148.03508	157.12389	
585	5.840	273.48453	149.81627	292.82285	274.77094	148.01328	157.13213	
586	5.850	273.47910	149.81615	292.82663	274.84454	148.06183	157.10933	
587	5.860	273.45786	149.81902	292.83640	274.82938	148.03136	157.11951	
588	5.870	273.47794	149.81670	292.82657	274.76346	148.00462	157.14273	
589	5.880	273.45541	149.82111	292.83487	274.81982	148.03395	157.12389	
590	5.890	273.45456	149.81876	292.83896	274.82425	148.03801	157.11989	
591	5.900	273.43658	149.82094	292.84760	274.78186	148.00795	157.13052	
592	5.910	273.45328	149.82030	292.83749	274.81454	148.02171	157.12314	
593	5.920	273.42978	149.82428	292.84711	274.82715	148.03244	157.11983	
594	5.930	273.45218	149.82085	292.83743	274.83820	148.05211	157.11601	
595	5.940	273.44116	149.81870	292.84793	274.84406	148.02835	157.11699	
596	5.950	273.47382	149.81503	292.83179	274.82779	148.01524	157.12120	
597	5.960	273.46127	149.81830	292.83521	274.82654	148.04945	157.11844	
598	5.970	273.48285	149.81346	292.82816	274.83499	148.04567	157.11255	
599	5.980	273.49472	149.81413	292.81931	274.80814	148.03748	157.12297	
600	5.990	273.50269	149.81215	292.81699	274.83389	148.05423	157.11664	
601	6.000	273.47778	149.81767	292.82523	274.81656	148.04390	157.11435	
602	6.010	273.44785	149.81921	292.84274	274.80728	148.02950	157.12386	
603	6.020	273.43869	149.82367	292.84213	274.77472	148.01572	157.13120	
604	6.030	273.43094	149.82372	292.84720	274.84329	148.03291	157.11673	
605	6.040	273.46249	149.81677	292.83667	274.81464	148.03429	157.12204	
606	6.050	273.44217	149.82008	292.84518	274.81918	148.04468	157.12024	
607	6.060	273.48013	149.81656	292.82532	274.82675	148.03267	157.12411	
608	6.070	273.47171	149.81419	292.83441	274.82135	148.04362	157.11993	
609	6.080	273.47839	149.81377	292.83066	274.83908	148.05034	157.11739	
610	6.090	273.45001	149.82002	292.84006	274.83752	148.05661	157.11574	
611	6.100	273.46091	149.82120	292.83109	274.83856	148.05823	157.10893	
612	6.110	273.48947	149.81302	292.82440	274.81552	148.04228	157.12115	
613	6.120	273.48285	149.81346	292.82816	274.84186	148.05449	157.11511	
614	6.130	273.45660	149.82054	292.83496	274.82288	148.04707	157.11934	
615	6.140	273.46005	149.81888	292.83514	274.83304	148.04626	157.11751	
616	6.150	273.45880	149.82039	292.83371	274.88431	148.05453	157.10709	
617	6.160	273.39432	149.82617	292.86777	274.86450	148.06419	157.11000	
618	6.170	273.44800	149.81725	292.84555	274.85648	148.05151	157.11261	
619	6.180	273.47275	149.81462	292.83310	274.85211	148.06609	157.11215	
620	6.190	273.46686	149.81744	292.83279	274.84259	148.04996	157.11537	
621	6.200	273.43207	149.82411	292.84586	274.81604	148.02522	157.12256	
622	6.210	273.42419	149.82227	292.85385	274.81918	148.04468	157.12024	
623	6.220	273.43887	149.81982	292.84778	274.85211	148.06609	157.11215	
624	6.230	273.42978	149.82428	292.84711	274.85278	148.06160	157.11243	
625	6.240	273.41861	149.82503	292.85339	274.81186	148.03990	157.12206	
626	6.250	273.44556	149.82033	292.84259	274.83752	148.05661	157.11574	
627	6.260	273.43881	149.82175	292.84494	274.85712	148.06960	157.10905	
628	6.270	273.45129	149.81752	292.84299	274.85577	148.06847	157.11127	
629	6.280	273.46790	149.81787	292.83148	274.83752	148.05661	157.11574	
630	6.290	273.42871	149.82481	292.84702	274.85577	148.06847	157.11127	
631	6.300	273.47391	149.81406	292.83319	274.83752	148.05661	157.11574	
632	6.310	273.48148	149.81502	292.82675	274.84845	148.06371	157.11305	
633	6.320	273.43982	149.82310	292.84219	274.80444	148.03508	157.12389	
634	6.330	273.44095	149.82350	292.84088	274.81439	148.01936	157.12152	
635	6.340	273.46356	149.81718	292.83536	274.83667	148.02354	157.11880	
636	6.350	273.47101	149.81909	292.82758	274.83389	148.05423	157.11664	
637	6.360	273.46017	149.81790	292.83655	274.85876	148.03792	157.11337	
638	6.370	273.36139	149.83127	292.88196	274.87326	148.05992	157.10870	
